<?xml version="1.0" encoding="utf-8"?>
<!-- Generator: Adobe Illustrator 24.1.2, SVG Export Plug-In . SVG Version: 6.00 Build 0)  -->
<svg version="1.1" id="Layer_1" xmlns="http://www.w3.org/2000/svg" xmlns:xlink="http://www.w3.org/1999/xlink" x="0px" y="0px"
	 viewBox="0 0 998 344" style="enable-background:new 0 0 998 344;" xml:space="preserve">
<style type="text/css">
	.st0{fill:#FFFFFF;}
	.st1{fill:#12AF9A;}
	.st2{fill:#4A4A4A;}
	.st3{fill:#444444;}
	.st4{fill:#FFFFFF;stroke:#CECECE;stroke-miterlimit:10;}
	.st5{fill:#FAFAFA;}
</style>
<path class="st1" d="M636.2,227.1c3.1-3.5,6.2-7,9.3-10.5c1.4-1.6,2.8-3.2,4.2-4.8c1.1-1.3,2.5-2,4.2-1.9c1.6,0.1,3.3-0.1,4.9,0.1
	c0.7,0.1,1.9,0.4,2,0.9c0.2,0.6-0.2,1.7-0.7,2.3c-4,4.5-8,9-12.1,13.4c-0.8,0.8-0.7,1.3-0.1,2.1c4.3,5.5,8.5,11,12.7,16.5
	c0.2,0.3,0.4,0.5,0.6,0.8c0.8,1.3,0.4,2.5-1.1,2.6c-2.5,0.1-5.1,0.3-7.6-0.1c-1.1-0.2-2.3-1.3-3.1-2.3c-3.1-4-6-8.1-9-12.1
	c-0.3-0.3-0.5-0.7-0.9-1.1c-1.2,1.3-2.4,2.5-3.5,3.8c-0.2,0.2-0.2,0.7-0.2,1.1c0,2.5,0,4.9,0,7.4c0,2.6-0.9,3.4-3.5,3.4
	c-1.3,0-2.6,0-3.9,0c-1.7-0.1-2.6-1-2.8-2.7c0-0.5,0-1,0-1.4c0-15.3,0-30.5,0-45.8c0-2.9,0.5-3.6,3.3-4.2c1.3-0.3,2.5-0.5,3.8-0.7
	c1.7-0.3,2.6,0.4,2.9,2.1c0.1,0.6,0.1,1.2,0.1,1.8c0,9.3,0,18.6,0,27.8c0,0.5,0,0.9,0,1.4C636,227.1,636.1,227.1,636.2,227.1z"/>
<path class="st1" d="M364.8,244.7c-0.5,0.4-1,0.8-1.5,1.2c-5.7,4.3-12,5-18.6,2.3c-4.7-1.9-7.3-5.5-7.4-10.6
	c-0.1-5.3,2.5-9.1,7.2-11.4c5.7-2.7,11.6-2.5,17.6-0.5c0.4,0.1,0.8,0.3,1.2,0.4c0.1,0,0.2,0,0.2,0c1.1-4.4-1.7-8.3-6.3-8.9
	c-4.1-0.5-7.8,0.4-11.3,2.5c-2.2,1.4-3.3,1.1-4.6-1.2c-0.2-0.4-0.4-0.8-0.6-1.1c-0.8-1.7-0.5-2.8,1.1-3.9c4.5-3,9.5-4.3,14.9-4.2
	c3.5,0.1,6.8,0.7,9.8,2.5c4.5,2.7,6.6,6.9,6.7,11.9c0.2,7.4,0.1,14.7,0.1,22.1c0,1.9-1,2.7-2.9,2.8c-0.2,0-0.3,0-0.5,0
	C365.7,248.7,365.6,248.6,364.8,244.7z M354.4,242.8c0-0.1,0-0.1,0-0.2c0.5,0,1,0,1.6-0.1c5-0.4,8-3.7,7.9-8.6c0-0.8-0.3-1.2-1-1.4
	c-1.6-0.5-3.1-1.1-4.7-1.4c-2.8-0.6-5.7-0.6-8.3,0.9c-2,1.2-3,2.9-2.9,5.3c0.1,2.3,1.4,3.8,3.5,4.6
	C351.8,242.4,353.1,242.5,354.4,242.8z"/>
<path class="st1" d="M450.6,215.3c4.3-5.4,9.8-6.8,15.9-5.6c6.7,1.3,11.2,6.4,11.9,13.2c0.1,1.3,0.2,2.7,0.2,4c0,6.1,0,12.2,0,18.3
	c0,2.6-0.9,3.5-3.5,3.5c-1.1,0-2.3,0-3.4,0c-2.4,0-3.3-0.9-3.3-3.3c0-5.9,0-11.9,0-17.8c0-0.8,0-1.7-0.1-2.5
	c-0.4-3.2-1.9-5.6-5.1-6.6c-5.5-1.6-11.2,1.1-11.2,8.1c-0.1,6.1,0,12.2,0,18.3c0,3.1-0.7,3.8-3.8,3.8c-1.2,0-2.3,0-3.5,0
	c-1.7-0.1-2.6-0.9-2.8-2.6c0-0.4,0-0.8,0-1.2c0-10.4,0-20.8,0-31.2c0-0.5,0-1,0.1-1.6c0.2-1.3,1-2,2.3-2.1c1.3-0.1,2.5-0.1,3.8,0
	c1.7,0.1,2.5,1,2.6,2.8C450.6,213.4,450.6,214.2,450.6,215.3z"/>
<path class="st1" d="M422.9,244.1c-0.2,0.1-0.3,0.2-0.4,0.3c-4.1,5.5-11.2,6.3-16.8,4.4c-5.9-1.9-9.7-7-9.9-13.6
	c-0.2-7.5-0.1-15-0.1-22.5c0-1.8,0.9-2.7,2.7-2.8c1.4-0.1,2.9-0.1,4.3,0c2.3,0.1,3.1,0.9,3.1,3.2c0,5.7,0,11.4,0,17.2
	c0,1.1,0,2.2,0.1,3.2c0.5,4.8,3.4,7.5,8,7.3c4.4-0.2,7.3-3.3,7.4-7.9c0.1-6.4,0-12.7,0-19.1c0-0.5,0-1,0-1.4c0.2-1.5,1-2.3,2.4-2.4
	c1.7-0.1,3.5-0.1,5.2,0c1.6,0.1,2.4,0.9,2.5,2.6c0,0.4,0,0.8,0,1.2c0,10.4,0,20.7,0,31.1c0,0.8,0,1.7-0.3,2.4
	c-0.6,1.4-1.9,1.5-3.2,1.5c-1.7-0.1-3.7,0.6-4.6-1.4C423.1,246.3,423.1,245.2,422.9,244.1z"/>
<path class="st1" d="M602.6,209.3c5.8,0,10.8,1.7,14.9,5.6c1.7,1.6,1.7,2.6,0.1,4.3c-0.6,0.6-1.3,1.3-1.9,1.9
	c-1.7,1.7-2.5,1.7-4.3,0.2c-1.8-1.5-3.7-2.5-6.1-2.9c-6.7-1.2-12.6,3.4-13,10.3c-0.3,5.8,2.6,10.5,7.7,11.8c3.8,1,7.3,0.4,10.5-2
	c0.4-0.3,0.7-0.6,1.1-0.9c1.6-1.3,2.4-1.3,3.9,0.2c0.8,0.8,1.6,1.6,2.4,2.4c1.3,1.4,1.3,2.3-0.1,3.7c-3.2,3.2-7.1,5.1-11.6,5.6
	c-7.6,0.9-14.4-0.9-19.4-6.9c-5.3-6.4-6.1-13.7-3-21.2c3.1-7.5,9.2-11.1,17.1-11.9C601.5,209.3,602.1,209.3,602.6,209.3z"/>
<path class="st1" d="M520.9,249.7c-8.5-0.3-15.1-3.4-18.8-10.9c-3.6-7.3-3.2-14.7,1.6-21.4c4.1-5.8,10.1-8.2,17.1-8.2
	c5.5,0,10.4,1.8,14.4,5.5c1.7,1.6,1.7,2.6,0.1,4.3c-0.7,0.7-1.4,1.4-2.1,2.1c-1.5,1.4-2.3,1.4-4,0.2c-1.6-1.1-3.2-2.3-5-2.8
	c-6.1-1.9-12,1.4-13.7,7.3c-1.9,6.4,1.3,12.8,7.1,14.4c4,1.1,7.6,0.4,10.9-2.2c2.7-2.1,3-2.1,5.5,0.3c0.6,0.6,1.2,1.1,1.7,1.8
	c1.1,1.2,1.1,2.2-0.1,3.4c-3,3-6.6,4.9-10.8,5.6C523.5,249.5,522,249.6,520.9,249.7z"/>
<path class="st1" d="M553.8,221.2c0,7.8,0,15.5,0,23.3c0,0.6,0,1.1-0.1,1.7c-0.2,1.5-1,2.4-2.6,2.4c-1.6,0.1-3.2,0.1-4.8,0
	c-1.7-0.1-2.7-1-2.8-2.8c0-0.6,0-1.2,0-1.8c0-15.1,0-30.3,0-45.4c0-2.7,0.5-3.4,3.2-4c1.3-0.3,2.6-0.6,3.9-0.8
	c1.7-0.3,2.8,0.5,3,2.2c0.1,0.6,0.1,1.2,0.1,1.8C553.8,205.6,553.8,213.4,553.8,221.2z"/>
<path class="st1" d="M574.3,229.2c0,5.3,0,10.6,0,15.9c0,2.8-0.8,3.6-3.5,3.6c-1.3,0-2.5,0-3.8,0c-1.8-0.1-2.8-1-2.9-2.8
	c0-0.3,0-0.7,0-1c0-10.4,0-20.7,0-31.1c0-0.5,0-1,0.1-1.4c0.2-1.4,0.9-2.2,2.4-2.3c1.6-0.1,3.1-0.1,4.7-0.1c2.3,0,3.1,0.9,3.1,3.2
	c0,4.7,0,9.4,0,14C574.3,227.8,574.3,228.5,574.3,229.2z"/>
<path class="st1" d="M684.3,248.3c-3.7,0-6.6-2.8-6.6-6.5c0-3.6,2.9-6.6,6.6-6.6c3.6,0,6.6,2.9,6.6,6.6
	C690.9,245.3,688,248.2,684.3,248.3z"/>
<path class="st1" d="M710.9,248.3c-3.7,0-6.6-2.8-6.6-6.5c0-3.6,2.9-6.6,6.6-6.6c3.6,0,6.6,2.9,6.6,6.6
	C717.5,245.3,714.6,248.2,710.9,248.3z"/>
<path class="st1" d="M737.6,248.3c-3.7,0-6.6-2.8-6.6-6.5c0-3.6,2.9-6.6,6.6-6.6c3.6,0,6.6,2.9,6.6,6.6
	C744.2,245.3,741.3,248.2,737.6,248.3z"/>
<path class="st1" d="M569,200.7c-3.7,0-6.6-2.8-6.6-6.5c0-3.6,2.9-6.6,6.6-6.6c3.6,0,6.6,2.9,6.6,6.6
	C575.6,197.8,572.7,200.7,569,200.7z"/>
<g>
	<g>
		<path class="st1" d="M149.6,178.7c-3.1,0-5.7-2.2-6.2-5.3c-0.3-1.7,0.1-3.3,1.1-4.7c1-1.4,2.4-2.3,4.1-2.5l89.8-14.3
			c0.3-0.1,0.7-0.1,1-0.1c3,0,5.7,2.3,6.2,5.3c0.3,1.7-0.1,3.3-1.1,4.7c-1,1.4-2.4,2.3-4.1,2.5l-89.8,14.3
			C150.3,178.7,150,178.7,149.6,178.7z"/>
		<path class="st1" d="M239.5,152c2.9,0,5.5,2.1,5.9,5.1c0.5,3.3-1.7,6.4-5,6.9l-89.8,14.3c-0.3,0.1-0.6,0.1-1,0.1
			c-2.9,0-5.5-2.1-6-5.1c-0.5-3.3,1.7-6.4,5-6.9l89.8-14.3C238.8,152,239.2,152,239.5,152 M239.5,151.5L239.5,151.5
			c-0.4,0-0.7,0-1.1,0.1l-89.8,14.3c-1.7,0.3-3.2,1.2-4.3,2.6c-1,1.4-1.4,3.1-1.2,4.9c0.5,3.2,3.2,5.5,6.5,5.5c0.4,0,0.7,0,1-0.1
			l89.8-14.3c1.7-0.3,3.2-1.2,4.3-2.6c1-1.4,1.4-3.1,1.2-4.9C245.4,153.9,242.7,151.5,239.5,151.5L239.5,151.5z"/>
	</g>
	<g>
		<path class="st1" d="M141.3,274.7c-14.5,0-26.4-11.8-26.4-26.4c0-14.5,11.8-26.4,26.4-26.4c14.5,0,26.4,11.8,26.4,26.4
			C167.6,262.9,155.8,274.7,141.3,274.7z M141.3,234.6c-7.6,0-13.8,6.2-13.8,13.8c0,7.6,6.2,13.8,13.8,13.8
			c7.6,0,13.8-6.2,13.8-13.8C155.1,240.8,148.9,234.6,141.3,234.6z"/>
		<path class="st1" d="M141.3,222.3c14.4,0,26.1,11.7,26.1,26.1c0,14.4-11.7,26.1-26.1,26.1c-14.4,0-26.1-11.7-26.1-26.1
			C115.2,234,126.9,222.3,141.3,222.3 M141.3,262.4c7.7,0,14-6.3,14-14c0-7.7-6.3-14-14-14c-7.7,0-14,6.3-14,14
			C127.2,256.1,133.5,262.4,141.3,262.4 M141.3,221.8c-14.7,0-26.6,11.9-26.6,26.6c0,14.7,11.9,26.6,26.6,26.6
			c14.7,0,26.6-11.9,26.6-26.6C167.9,233.7,156,221.8,141.3,221.8L141.3,221.8z M141.3,261.9c-7.5,0-13.5-6.1-13.5-13.5
			c0-7.5,6.1-13.5,13.5-13.5c7.5,0,13.5,6.1,13.5,13.5C154.8,255.8,148.7,261.9,141.3,261.9L141.3,261.9z"/>
	</g>
	<g>
		<path class="st1" d="M264.2,261.2c-14.5,0-26.4-11.8-26.4-26.4c0-14.5,11.8-26.4,26.4-26.4c14.5,0,26.4,11.8,26.4,26.4
			C290.6,249.4,278.7,261.2,264.2,261.2z M264.2,221.1c-7.6,0-13.8,6.2-13.8,13.8c0,7.6,6.2,13.8,13.8,13.8
			c7.6,0,13.8-6.2,13.8-13.8C278,227.3,271.8,221.1,264.2,221.1z"/>
		<path class="st1" d="M264.2,208.8c14.4,0,26.1,11.7,26.1,26.1c0,14.4-11.7,26.1-26.1,26.1c-14.4,0-26.1-11.7-26.1-26.1
			C238.1,220.5,249.8,208.8,264.2,208.8 M264.2,248.9c7.7,0,14-6.3,14-14c0-7.7-6.3-14-14-14c-7.7,0-14,6.3-14,14
			C250.2,242.6,256.5,248.9,264.2,248.9 M264.2,208.2c-14.7,0-26.6,11.9-26.6,26.6c0,14.7,11.9,26.6,26.6,26.6
			c14.7,0,26.6-11.9,26.6-26.6C290.8,220.2,278.9,208.2,264.2,208.2L264.2,208.2z M264.2,248.4c-7.5,0-13.5-6.1-13.5-13.5
			c0-7.5,6.1-13.5,13.5-13.5c7.5,0,13.5,6.1,13.5,13.5C277.7,242.3,271.7,248.4,264.2,248.4L264.2,248.4z"/>
	</g>
	<g>
		<path class="st2" d="M171.3,119.5c1.4,0,2.8,0.5,3.9,1.5l17.1,15.3l16.8-14.6c1.1-1,2.5-1.5,3.9-1.5c1.7,0,3.4,0.7,4.6,2.1
			c2.2,2.5,1.9,6.3-0.6,8.5l-20.7,18c-1.1,1-2.5,1.5-3.9,1.5c-1.4,0-2.8-0.5-3.9-1.5l-21.1-18.7c-2.5-2.2-2.8-6-0.6-8.5
			C167.9,120.2,169.6,119.5,171.3,119.5 M171.3,118.9c-1.9,0-3.7,0.8-5,2.3c-2.4,2.7-2,6.9,0.7,9.2l21,18.6c1.2,1,2.7,1.6,4.3,1.6
			c1.6,0,3.1-0.6,4.3-1.6l20.7-18c2.7-2.4,3-6.5,0.7-9.2c-1.2-1.4-3.1-2.3-5-2.3c-1.6,0-3.1,0.6-4.3,1.6l-16.4,14.3l-16.8-15
			C174.4,119.5,172.9,118.9,171.3,118.9L171.3,118.9z"/>
		<g>
			<path class="st2" d="M192.3,143.9c-3.4,0-6.2-2.7-6.3-6.1l-1.8-58.8c-0.1-3.5,2.6-6.4,6.1-6.5c0.1,0,0.1,0,0.2,0
				c3.4,0,6.2,2.7,6.3,6.1l1.8,58.8c0.1,3.5-2.6,6.4-6.1,6.5C192.5,143.9,192.4,143.9,192.3,143.9z"/>
			<path class="st3" d="M217.8,122c-1.2-1.4-2.9-2.2-4.8-2.2c-1.5,0-3,0.5-4.1,1.5l-10.3,8.9l-1.5-51.7c-0.1-3.5-3-6.3-6.6-6.3h0
				c-0.1,0-0.1,0-0.2,0c-3.6,0.1-6.4,3.2-6.3,6.8l1.5,50.7l-10.2-9.1c-1.1-1-2.6-1.5-4.1-1.5c-1.8,0-3.6,0.8-4.8,2.2
				c-2.3,2.6-2,6.6,0.7,8.9l21.1,18.7c1.1,1,2.6,1.5,4.1,1.5c1.5,0,3-0.5,4.1-1.5l20.7-18C219.8,128.7,220.1,124.7,217.8,122z
				 M184.5,79.1c-0.1-3.3,2.5-6.1,5.8-6.2c0.1,0,0.1,0,0.2,0c3.3,0,5.9,2.6,6,5.8l1.6,52.1l-5.8,5.1l-6.3-5.6L184.5,79.1z"/>
		</g>
	</g>
	<g>
		<g>
			<path class="st1" d="M125.8,113.4c-3.3,0-6.1-2.7-6.2-6.1c0-1.7,0.6-3.3,1.7-4.5c1.2-1.2,2.7-1.9,4.4-2l41.5-1.5
				c0.2,0,0.3,0,0.5,0c4.6,0,6.7,3,6.7,6c0,3.2-2.2,6.5-6.5,6.6l-41.8,1.5C126,113.4,125.9,113.4,125.8,113.4
				C125.8,113.4,125.8,113.4,125.8,113.4z"/>
			<path class="st1" d="M167.8,99.6c8.9,0,8.3,11.8,0.2,12.1l-41.8,1.5c-0.1,0-0.2,0-0.3,0c-3.2,0-5.8-2.6-5.9-5.9
				c-0.1-3.3,2.5-6.1,5.9-6.2l41.5-1.5C167.5,99.6,167.6,99.6,167.8,99.6 M167.8,99.1c-0.2,0-0.3,0-0.5,0l-41.5,1.5
				c-1.7,0-3.4,0.8-4.6,2c-1.2,1.3-1.8,2.9-1.8,4.7c0.1,3.5,3,6.4,6.4,6.4c0.1,0,0.2,0,0.3,0l41.8-1.5c4.5-0.1,6.8-3.5,6.8-6.8
				C174.7,102.2,172.5,99.1,167.8,99.1L167.8,99.1z"/>
		</g>
		<g>
			<path class="st1" d="M130.7,219.1c-2.8,0-5.2-1.8-6-4.5L85.8,84.6l-48.3-5.9c-3.4-0.4-5.9-3.6-5.5-7c0.4-3.2,3.1-5.5,6.3-5.5
				c0.2,0,0.5,0,0.7,0l52.4,6.3c2.5,0.3,4.6,2,5.3,4.4L135,205.2l126-32.7l10.4-63.1l-57,1.5c-0.1,0-0.1,0-0.2,0
				c-3.9,0-5.7-3.2-5.7-6.1c0-3.1,1.8-6.4,5.9-6.5l64.2-1.7c0.1,0,0.2,0,0.3,0c1.8,0,3.4,0.8,4.6,2.2c1.2,1.4,1.8,3.3,1.5,5.2
				l-12.3,74.7c-0.4,2.5-2.2,4.4-4.6,5.1l-135.9,35.3C131.8,219,131.3,219.1,130.7,219.1L130.7,219.1z"/>
			<path class="st1" d="M38.3,66.5c0.2,0,0.5,0,0.7,0l52.4,6.3c2.4,0.3,4.4,2,5.1,4.3l38.4,128.3l126.4-32.8l10.5-63.6l-57.3,1.5
				c-0.1,0-0.1,0-0.2,0c-7.3,0-7.4-11.9,0.2-12.1l64.2-1.7c0.1,0,0.2,0,0.3,0c1.7,0,3.3,0.8,4.5,2.1c1.2,1.4,1.7,3.2,1.4,5
				l-12.3,74.7c-0.4,2.4-2.1,4.3-4.4,4.9l-135.9,35.3c-0.5,0.1-1,0.2-1.5,0.2c0,0,0,0,0,0c-2.6,0-5-1.7-5.8-4.3L86,84.4l-48.5-5.9
				c-3.3-0.4-5.7-3.4-5.3-6.7C32.6,68.7,35.2,66.5,38.3,66.5 M38.3,66C38.3,66,38.3,66,38.3,66c-3.3,0-6.1,2.5-6.5,5.8
				c-0.2,1.7,0.3,3.4,1.3,4.8c1.1,1.4,2.6,2.2,4.4,2.5l48.2,5.8l38.8,129.8c0.8,2.7,3.4,4.7,6.3,4.7c0.6,0,1.1-0.1,1.7-0.2
				l135.9-35.3c2.5-0.6,4.4-2.7,4.8-5.3l12.3-74.7c0.3-1.9-0.2-3.9-1.5-5.4c-1.2-1.4-3-2.2-4.8-2.2c-0.1,0-0.2,0-0.3,0L214.4,98
				c-4.1,0.1-6.2,3.4-6.2,6.7c0,3.1,1.9,6.4,6,6.4c0.1,0,0.1,0,0.2,0l56.7-1.5l-10.3,62.7l-125.6,32.6L97,77
				c-0.7-2.5-2.9-4.3-5.5-4.6L39,66C38.8,66,38.5,66,38.3,66L38.3,66L38.3,66z"/>
		</g>
	</g>
</g>
<path class="st3" d="M580.3,113.3c6.6-14.5,30.8-15.9,38.9,0.8c0.4-0.5,0.8-0.9,1.1-1.3c6.3-9.1,15.4-12.6,26.8-10.1
	c10.4,2.3,15.5,9.6,17.4,19.5c0.7,3.3,0.9,6.7,1,10.1c0.1,10.1,0.1,20.1,0,30.2c0,5.2-1.5,6.7-6.6,6.7c-1.3,0-2.5,0-3.8,0
	c-4.6,0-6.2-1.7-6.2-6.3c0-9,0-17.9,0-26.9c0-3.2,0-6.5-0.6-9.6c-0.9-5-3.2-9.2-8.8-10.1c-5.3-0.8-9.4,1.4-12.5,5.6
	c-2.8,3.8-3.9,8.3-3.9,12.9c-0.1,9.2-0.1,18.4-0.1,27.6c0,5.3-1.5,6.8-6.8,6.8c-1.4,0-2.9,0-4.3,0c-3.8-0.1-5.6-1.8-5.6-5.6
	c0-10.3,0-20.6-0.1-30.9c0-2.6-0.3-5.3-1-7.8c-2.4-9-11.5-11.7-18.6-5.6c-4.6,4-6.1,9.4-6.3,15.2c-0.2,9.2-0.1,18.4-0.1,27.6
	c0,5.6-1.5,7.1-7.1,7.1c-1.4,0-2.7,0-4.1,0c-3.8-0.1-5.5-1.8-5.6-5.7c0-10.1,0-20.3,0-30.4c0-7.8,0-15.5,0-23.3
	c0-4.5,1.6-6.1,6.1-6.2c1.8-0.1,3.6-0.1,5.3,0.1c3.5,0.3,5.1,2,5.3,5.5C580.3,110.5,580.3,111.9,580.3,113.3z"/>
<path class="st3" d="M699.4,112.6c9.3-11,20.5-12.9,32.8-8.8c12.7,4.3,19.2,14.2,20.9,27.2c1.6,12.6-1.6,23.9-11.6,32.4
	c-11.3,9.7-29.4,9.4-39.1-0.4c-0.9-0.9-1.7-1.8-2.9-3.2c-0.1,1.4-0.2,2.3-0.2,3.1c0,9.4,0,18.7,0,28.1c0,5.4-1.6,6.9-7,6.9
	c-1.7,0-3.4,0.1-5.1-0.1c-2.7-0.2-4.3-1.8-4.6-4.5c-0.1-0.7-0.1-1.3-0.1-2c0-27.1,0-54.2,0-81.3c0-0.8,0-1.7,0.2-2.5
	c0.4-2.2,1.7-3.7,4-3.9c2.4-0.2,4.9-0.3,7.3-0.1c3.4,0.2,4.9,1.9,5.2,5.3C699.3,109.9,699.3,111,699.4,112.6z M718.5,115.8
	c-4.5,0-8.1,1.1-11.4,3.4c-6.6,4.6-9.6,13.6-7.5,22.4c2.1,9.1,9.7,15.1,18.8,15c9-0.1,15.7-5.7,17.8-14.8c1-4.5,0.9-9.1-0.6-13.5
	C733,120.6,726.5,115.9,718.5,115.8z"/>
<path class="st3" d="M361.3,112.6c0-2.2,0-4,0-5.8c0-8.4,0-16.9,0-25.3c0-3.9,1.7-5.6,5.5-5.8c2-0.1,4.1-0.1,6.1,0
	c3.3,0.2,4.9,1.8,5.1,5.1c0,0.6,0,1.2,0,1.8c0,26.5,0,53.1,0,79.6c0,1.6-0.2,3.3-0.9,4.6c-1.9,3.5-13.1,3.3-15-0.2
	c-0.5-0.8-0.6-1.9-0.7-2.9c-0.1-1.2,0-2.3,0-3.5c-0.3,0-0.5,0-0.6,0.1c-11.6,16.4-41.7,13.3-50.8-9.1c-6.3-15.5-2.1-33.7,10.2-43
	c10.4-7.8,25.9-8.3,35.5-0.9C357.6,108.7,359.2,110.6,361.3,112.6z M323.8,136.2c0,0.7,0,1.4,0,2c0.8,12.5,10.2,20.2,22.4,18.1
	c8.6-1.5,14.5-8.6,15.4-18.6c1.4-14.8-12.4-25.7-26-20.7C328.3,119.6,323.8,127,323.8,136.2z"/>
<path class="st3" d="M865.6,112.7c0.1-0.8,0.1-1.1,0.1-1.4c0.1-6.9,1-7.8,8.1-7.8c7.6,0,8.6,1,8.6,8.6c0,16.6,0,33.1,0,49.7
	c0,5.9-1.4,7.3-7.3,7.3c-1.3,0-2.5,0-3.8,0c-3.9-0.1-5.5-1.7-5.6-5.6c0-1,0-2,0-3.4c-0.6,0.3-1,0.5-1.2,0.7
	c-9.2,12-27.5,12.2-39,4.4c-19.6-13.3-18.8-46.5,1.5-58.8c10.6-6.4,28.2-6.7,37.5,5.4C864.8,112,865,112.2,865.6,112.7z
	 M865.9,136.4c0.1-13.7-10.5-22.8-23.3-20.1c-7.9,1.6-13.4,8.1-14.3,16.6c-1.1,10.4,2.9,18.8,10.6,22.1
	C850.4,160,865.6,153.6,865.9,136.4z"/>
<path class="st3" d="M441.2,76.8c9.5,0.4,18.3,2.5,26.3,7.6c4.1,2.6,4.6,5,1.9,9c-0.2,0.3-0.4,0.6-0.6,0.8c-3.2,4.6-4.6,4.9-9.4,2.4
	c-6.1-3.1-12.6-4.7-19.5-4.5c-15.5,0.5-27.3,10.7-29.9,25.6c-2.6,15.5,4.9,30.1,18.4,35.3c10.2,3.9,20.3,3,30.2-1.6
	c0.6-0.3,1.2-0.7,1.8-0.9c0.8-0.3,1.5-0.7,2.4-0.9c2.8-0.8,5.5,1.5,7.9,6.5c1.2,2.6,0.8,4.4-1.7,6.1c-8.4,5.8-17.8,8.4-28,8.2
	c-10.5-0.1-20.5-2.4-29.2-8.6C396,150.6,390,134.8,393,116c3.1-19.6,15.2-31.9,34.3-37.1C431.8,77.8,436.6,77.5,441.2,76.8z"/>
<path class="st3" d="M479.3,136.3c0-19.2,15.7-34.3,35.5-34.3c19.6,0,35.5,15.2,35.5,34.1c0,19.1-15.7,34.3-35.5,34.4
	C495.1,170.7,479.3,155.5,479.3,136.3z M514.4,156.5c10.7,0.2,19.5-8.6,19.7-19.6c0.2-11.5-8.4-20.9-19.3-21
	c-10.6-0.1-19.4,8.9-19.6,20.1C495.2,147.3,503.6,156.3,514.4,156.5z"/>
<path class="st3" d="M921.3,102c8.1,0.2,15.1,2.6,19.7,9.8c2.5,3.9,1.5,6.1-2.8,7.7c-4.1,1.5-7.4,1.2-10.4-2.3
	c-2.7-3.1-8.3-3.3-11.7-1c-3.7,2.5-3.8,7.7-0.1,9.9c2.6,1.6,5.7,2.4,8.6,3.6c4.3,1.8,9,3.2,12.9,5.7c12.3,8,11.5,25.1-1.7,31.7
	c-10.8,5.4-21.9,5.1-32.3-1.5c-2.9-1.8-5.1-4.9-7-7.8c-1.9-2.8-0.7-5.4,2.5-6.7c5.1-2.1,7.6-1.6,11.5,2.3c4.1,4.1,10.7,5.5,15.7,3.3
	c2.7-1.2,4.5-3.1,4.6-6.1c0.1-2.9-1.7-4.7-4.2-5.7c-4.1-1.7-8.4-3.1-12.5-4.7c-1.9-0.7-3.8-1.4-5.6-2.4c-6.3-3.3-10.5-8.2-10.4-15.8
	c0.1-7.9,3.8-13.9,10.9-17.1c3.8-1.8,8.1-2.4,12.2-3.5C921.2,101.5,921.2,101.8,921.3,102z"/>
<path class="st3" d="M783.2,116c1.5-2.6,2.6-5.2,4.3-7.4c3.6-4.7,8.6-7,14.6-6.5c3.2,0.3,4.2,1.3,4.4,4.4c0.1,2.8,0.1,5.6-0.1,8.3
	c-0.1,2.1-1.2,3.4-3.6,3.3c-11.7-0.3-17.3,4.3-18.4,16.1c-0.8,8.5-0.6,17.2-0.7,25.8c-0.1,8.1-0.8,8.9-8.8,8.9c-0.8,0-1.5,0-2.3,0
	c-3.8-0.1-5.6-1.8-5.6-5.6c0-7.4,0-14.9,0-22.3c0-10.5,0-20.9,0-31.4c0-4.6,1.6-6.2,6.2-6.3c1.8,0,3.6,0,5.3,0.1
	c3,0.3,4.5,1.9,4.7,4.9c0.1,1.3,0,2.5,0,3.8C783.2,113.5,783.2,114.7,783.2,116z"/>
</svg>
